<svg width="80" height="95" viewBox="0 0 80 95" fill="none" xmlns="http://www.w3.org/2000/svg">
<g clip-path="url(#clip0_204_1047)">
<mask id="mask0_204_1047" style="mask-type:luminance" maskUnits="userSpaceOnUse" x="0" y="0" width="80" height="95">
<path d="M0.5 94.2962H79.5V0.703857H0.5V94.2962Z" fill="white"/>
</mask>
<g mask="url(#mask0_204_1047)">
<path d="M17.0347 33.9186H11.0316C10.6856 33.9161 10.354 33.5294 10.1096 32.8431C9.86514 32.1568 9.72776 31.227 9.72754 30.2574C9.72776 29.2866 9.86548 28.3557 10.1105 27.6693C10.3554 26.9828 10.6876 26.5969 11.0341 26.5963H17.0372C17.3026 26.5963 17.5571 26.3009 17.7447 25.7751C17.9323 25.2493 18.0378 24.5361 18.0378 23.7926C18.0378 23.049 17.9323 22.3358 17.7447 21.81C17.5571 21.2842 17.3026 20.9888 17.0372 20.9888H11.0341C10.6876 20.9882 10.3554 20.6023 10.1105 19.9158C9.86548 19.2294 9.72776 18.2985 9.72754 17.3277C9.72776 16.3569 9.86548 15.426 10.1105 14.7395C10.3554 14.0531 10.6876 13.6671 11.0341 13.6665H17.0372C17.9952 13.6671 18.9138 14.7336 19.5913 16.6315C20.2687 18.5295 20.6495 21.1035 20.65 23.7879C20.6501 25.118 20.5567 26.4351 20.3752 27.664C20.1936 28.893 19.9275 30.0097 19.5919 30.9504C19.2564 31.8911 18.858 32.6374 18.4195 33.1467C17.981 33.656 17.511 33.9183 17.0364 33.9186H17.0347Z" fill="#D8A858"/>
<path d="M17.9426 94.2962H15.5096C15.1633 94.2949 14.8313 93.9087 14.5865 93.2223C14.3418 92.5359 14.2041 91.6054 14.2039 90.635C14.2041 89.6646 14.3418 88.7341 14.5865 88.0477C14.8313 87.3613 15.1633 86.9751 15.5096 86.9738H17.9426C19.8427 86.8616 21.6491 84.6401 22.965 80.7975C24.2809 76.955 24.9986 71.8057 24.9604 66.4811C24.9215 61.2996 24.1696 56.3608 22.8618 52.6961C21.5541 49.0315 19.7916 46.9245 17.9426 46.8154H15.3429C15.1711 46.816 15.0009 46.7217 14.8422 46.5378C14.6834 46.354 14.5391 46.0842 14.4176 45.7439C14.2961 45.4036 14.1998 44.9995 14.134 44.5548C14.0683 44.11 14.0346 43.6333 14.0347 43.1519C14.0347 42.6707 14.0685 42.1942 14.1343 41.7497C14.2 41.3052 14.2964 40.9014 14.4179 40.5614C14.5394 40.2214 14.6837 39.9518 14.8424 39.7681C15.0011 39.5844 15.1711 39.4901 15.3429 39.4907H17.9442C20.5374 39.6203 23.0061 42.6308 24.8073 47.86C26.6085 53.0893 27.5948 60.1092 27.5493 67.3759C27.5047 74.4766 26.4783 81.2516 24.6863 86.2733C22.8942 91.295 20.4765 94.1713 17.9426 94.2962Z" fill="#D8A858"/>
<path d="M17.9577 81.2918H15.4964C15.1498 81.2918 14.8174 80.9062 14.5723 80.2196C14.3271 79.5331 14.1893 78.6019 14.1891 77.6307C14.1891 76.659 14.3268 75.7272 14.572 75.0402C14.8172 74.3531 15.1497 73.9671 15.4964 73.9671H17.9577C18.6304 73.9653 19.2753 73.2152 19.7507 71.8816C20.2262 70.548 20.4932 68.7401 20.4932 66.8551C20.493 64.9705 20.2258 63.1631 19.7504 61.8301C19.275 60.497 18.6303 59.7472 17.9577 59.7453H11.0374C10.8652 59.7463 10.6947 59.6519 10.5356 59.4676C10.3764 59.2833 10.2319 59.0128 10.1102 58.6715C9.98845 58.3302 9.892 57.925 9.82634 57.4789C9.76068 57.0329 9.7271 56.555 9.72754 56.0725C9.72798 55.5917 9.76221 55.1159 9.82827 54.6721C9.89433 54.2284 9.99094 53.8255 10.1126 53.4864C10.2342 53.1473 10.3785 52.8786 10.5372 52.6958C10.6958 52.5129 10.8658 52.4194 11.0374 52.4207H17.9577C18.6341 52.4225 19.3036 52.7976 19.9282 53.5246C20.5528 54.2516 21.1202 55.3162 21.598 56.6576C22.0758 57.9991 22.4546 59.5911 22.7128 61.3428C22.971 63.0945 23.1036 64.9715 23.1029 66.8668C23.102 70.6906 22.5598 74.3571 21.5951 77.0616C20.6305 79.7661 19.3223 81.2875 17.9577 81.2918Z" fill="#D8A858"/>
<path d="M4.12051 8.05424C3.85529 8.04989 3.60031 8.3408 3.4116 8.86302C3.2229 9.38525 3.1159 10.0961 3.11414 10.8393C3.1159 11.5796 3.22209 12.2879 3.40954 12.8097C3.59698 13.3315 3.85046 13.6243 4.11467 13.6243H5.1152V10.8463C5.11411 10.1087 5.00936 9.4021 4.82364 8.87949C4.63792 8.35688 4.3862 8.06038 4.12301 8.05424H4.12051ZM4.12051 94.2962C3.64518 94.299 3.17431 94.0392 2.73484 93.5316C2.29537 93.0241 1.89591 92.2788 1.55929 91.3384C1.22268 90.3979 0.95552 89.2808 0.773088 88.0508C0.590656 86.8208 0.496531 85.5022 0.496094 84.1702V30.2222C0.496203 29.7405 0.53021 29.2636 0.596168 28.8188C0.662126 28.374 0.758741 27.97 0.880483 27.6299C1.00222 27.2899 1.1467 27.0204 1.30565 26.837C1.4646 26.6536 1.63489 26.5598 1.80678 26.561C2.15337 26.561 2.48578 26.9467 2.73093 27.6332C2.97608 28.3198 3.11392 29.251 3.11414 30.2222V84.1702C3.11414 84.9138 3.21955 85.6269 3.40719 86.1527C3.59482 86.6785 3.84931 86.9739 4.11467 86.9739C4.24606 86.9739 4.37616 86.9014 4.49755 86.7605C4.61894 86.6196 4.72924 86.413 4.82215 86.1527C4.91506 85.8923 4.98875 85.5833 5.03904 85.2431C5.08932 84.9029 5.1152 84.5384 5.1152 84.1702V20.956H4.11467C3.64047 20.9185 3.17355 20.6195 2.7406 20.0761C2.30764 19.5328 1.91714 18.7557 1.59139 17.7893C1.26565 16.8229 1.01105 15.6861 0.842139 14.4439C0.67323 13.2017 0.593324 11.8783 0.606985 10.5495C0.63422 7.97113 1.01191 5.51927 1.66282 3.69526C2.31373 1.87125 3.1887 0.812889 4.10883 0.736572C5.06457 0.745813 5.98021 1.81398 6.65595 3.70798C7.33168 5.60198 7.71266 8.16807 7.71573 10.8463V84.1702C7.71485 86.8554 7.33374 89.4299 6.65607 91.3285C5.97841 93.227 5.05958 94.2944 4.10133 94.2962" fill="#D8A858"/>
<path d="M17.3314 46.8669C16.9848 46.8662 16.6525 46.48 16.4075 45.793C16.1625 45.106 16.0249 44.1746 16.0249 43.2034C16.0251 42.2325 16.1628 41.3017 16.4078 40.6152C16.6528 39.9287 16.9849 39.5428 17.3314 39.5422C18.8227 39.5422 20.2529 37.8821 21.3074 34.9271C22.3619 31.9721 22.9544 27.9643 22.9544 23.7854C22.9544 19.6064 22.3619 15.5986 21.3074 12.6436C20.2529 9.68863 18.8227 8.02853 17.3314 8.02853L11.3466 8.07994C11.0001 8.07932 10.6679 7.69339 10.423 7.00692C10.178 6.32045 10.0403 5.38958 10.04 4.41877C10.04 3.44755 10.1777 2.51607 10.4227 1.8291C10.6677 1.14213 11 0.755877 11.3466 0.755257L17.3414 0.703857C18.4231 0.703857 19.4942 1.30088 20.4935 2.46083C21.4928 3.62078 22.4009 5.32096 23.1657 7.46427C23.9306 9.60759 24.5373 12.1521 24.9512 14.9524C25.3652 17.7528 25.5782 20.7543 25.5782 23.7854C25.5782 26.8165 25.3652 29.8179 24.9512 32.6183C24.5373 35.4186 23.9306 37.9631 23.1657 40.1064C22.4009 42.2498 21.4928 43.9499 20.4935 45.1099C19.4942 46.2698 18.4231 46.8669 17.3414 46.8669" fill="#D8A858"/>
<path d="M11.0338 94.2962C10.6867 94.2969 10.3537 93.9114 10.108 93.2245C9.86222 92.5376 9.72381 91.6054 9.72314 90.6327V30.2222C9.72325 29.7405 9.75726 29.2636 9.82322 28.8188C9.88918 28.374 9.98579 27.97 10.1075 27.6299C10.2293 27.2899 10.3738 27.0204 10.5327 26.837C10.6916 26.6536 10.8619 26.5598 11.0338 26.561C11.3804 26.561 11.7128 26.9467 11.958 27.6332C12.2031 28.3198 12.341 29.251 12.3412 30.2222V90.6327C12.3412 91.6043 12.2035 92.5362 11.9583 93.2232C11.7131 93.9103 11.3806 94.2962 11.0338 94.2962Z" fill="#D8A858"/>
<path d="M66.4606 94.2962C66.1135 94.2969 65.7805 93.9114 65.5347 93.2245C65.289 92.5376 65.1506 91.6054 65.1499 90.6327V4.65243C65.1498 4.17035 65.1836 3.69294 65.2495 3.24759C65.3154 2.80223 65.4119 2.39767 65.5337 2.05711C65.6555 1.71655 65.8 1.44669 65.9591 1.26299C66.1181 1.07928 66.2886 0.985354 66.4606 0.986584C66.8072 0.986584 67.1396 1.37224 67.3847 2.05878C67.6299 2.74531 67.7677 3.67654 67.768 4.64776V90.628C67.7682 91.1095 67.7345 91.5864 67.6689 92.0314C67.6033 92.4765 67.507 92.8809 67.3856 93.2216C67.2642 93.5622 67.12 93.8325 66.9613 94.0169C66.8026 94.2013 66.6324 94.2962 66.4606 94.2962Z" fill="#2B2E34"/>
<path d="M79.5001 4.64771C79.4995 5.61876 79.3615 6.54951 79.1165 7.23615C78.8715 7.92279 78.5393 8.30936 78.1928 8.31122H54.7287C54.382 8.31122 54.0495 7.92524 53.8043 7.2382C53.5591 6.55116 53.4214 5.61933 53.4214 4.64771C53.421 4.16582 53.4544 3.68843 53.52 3.24287C53.5855 2.79732 53.6817 2.39235 53.8031 2.05117C53.9246 1.70999 54.0688 1.43931 54.2277 1.25461C54.3865 1.06992 54.5568 0.974852 54.7287 0.974854H78.1928C78.3648 0.974852 78.535 1.06992 78.6939 1.25461C78.8527 1.43931 78.997 1.70999 79.1184 2.05117C79.2399 2.39235 79.3361 2.79732 79.4016 3.24287C79.4671 3.68843 79.5006 4.16582 79.5001 4.64771Z" fill="#2B2E34"/>
<path d="M46.7501 94.2962C46.403 94.2969 46.07 93.9114 45.8243 93.2245C45.5785 92.5376 45.4401 91.6054 45.4395 90.6327V4.65243C45.4393 4.17035 45.4732 3.69294 45.539 3.24759C45.6049 2.80223 45.7015 2.39767 45.8233 2.05711C45.945 1.71655 46.0896 1.44669 46.2486 1.26299C46.4077 1.07928 46.5781 0.985354 46.7501 0.986584C47.0967 0.986584 47.4291 1.37224 47.6743 2.05878C47.9194 2.74531 48.0573 3.67654 48.0575 4.64776V90.628C48.0577 91.1095 48.0241 91.5864 47.9585 92.0314C47.8929 92.4765 47.7966 92.8809 47.6752 93.2216C47.5538 93.5622 47.4096 93.8325 47.2508 94.0169C47.0921 94.2013 46.922 94.2962 46.7501 94.2962Z" fill="#2B2E34"/>
<path d="M53.422 66.8923C53.4214 67.863 53.2835 68.7934 53.0387 69.48C52.7938 70.1665 52.4619 70.5534 52.1155 70.5558H31.0844C30.9126 70.5565 30.7424 70.4622 30.5836 70.2783C30.4248 70.0945 30.2805 69.8247 30.1589 69.4845C30.0373 69.1442 29.9409 68.7402 29.8751 68.2954C29.8093 67.8506 29.7754 67.3738 29.7754 66.8923C29.775 66.4101 29.8085 65.9323 29.8741 65.4864C29.9397 65.0406 30.0361 64.6354 30.1577 64.2941C30.2793 63.9529 30.4238 63.6823 30.5828 63.4979C30.7419 63.3135 30.9123 63.2189 31.0844 63.2195H52.1155C52.2874 63.2198 52.4576 63.3151 52.6163 63.4999C52.7751 63.6847 52.9192 63.9555 53.0406 64.2966C53.1619 64.6378 53.2581 65.0426 53.3236 65.488C53.389 65.9334 53.4225 66.4107 53.422 66.8923Z" fill="#2B2E34"/>
<path d="M47.5089 1.62206C47.7913 2.18343 47.983 3.0354 48.0419 3.99163C48.1008 4.94787 48.0222 5.93056 47.8232 6.7248L32.1483 69.0044C32.0494 69.3974 31.9238 69.7318 31.7787 69.9888C31.6337 70.2457 31.472 70.42 31.3029 70.5018C31.1338 70.5836 30.9606 70.5713 30.7932 70.4655C30.6258 70.3597 30.4675 70.1625 30.3273 69.8853C30.1871 69.6081 30.0677 69.2562 29.9761 68.8498C29.8844 68.4433 29.8222 67.9902 29.793 67.5164C29.7638 67.0425 29.7682 66.5572 29.8059 66.0881C29.8437 65.619 29.914 65.1754 30.013 64.7825L45.6879 2.50289C45.7868 2.10996 45.9124 1.77548 46.0575 1.51856C46.2025 1.26164 46.3642 1.0873 46.5333 1.00551C46.7024 0.92371 46.8756 0.93606 47.043 1.04185C47.2104 1.14764 47.3687 1.34479 47.5089 1.62206Z" fill="#2B2E34"/>
<path d="M11.0349 20.9582H6.42078C6.07419 20.9576 5.74188 20.5714 5.49688 19.8844C5.25188 19.1974 5.11426 18.2659 5.11426 17.2947C5.11448 16.3239 5.2522 15.393 5.49717 14.7066C5.74215 14.0201 6.07434 13.6342 6.42078 13.6335H11.0349C11.3813 13.6342 11.7135 14.0201 11.9585 14.7066C12.2035 15.393 12.3412 16.3239 12.3414 17.2947C12.3414 18.2659 12.2038 19.1974 11.9588 19.8844C11.7138 20.5714 11.3815 20.9576 11.0349 20.9582Z" fill="#D8A858"/>
</g>
</g>
<defs>
<clipPath id="clip0_204_1047">
<rect width="79" height="93.5924" fill="white" transform="translate(0.5 0.703857)"/>
</clipPath>
</defs>
</svg>
