<svg width="132" height="131" viewBox="0 0 132 131" fill="none" xmlns="http://www.w3.org/2000/svg">
<path d="M118.53 41.3353V49.1323C116.648 49.1323 115.486 51.4368 113.457 56.3244C111.38 61.3273 108.795 67.5522 103.221 67.5522C97.6468 67.5522 95.0864 61.3273 93.0152 56.3244C90.983 51.4368 89.8214 49.1323 87.9423 49.1323C86.0633 49.1323 84.8986 51.4368 82.8695 56.3244C80.7923 61.3273 78.2078 67.5522 72.6457 67.5522C67.0835 67.5522 64.4991 61.3273 62.4159 56.3244C60.3867 51.4368 59.2251 49.1323 57.346 49.1323C55.467 49.1323 54.2933 51.4368 52.2732 56.3244C50.196 61.3273 47.6115 67.5522 42.0524 67.5522C36.4932 67.5522 33.9058 61.3273 31.8256 56.3244C29.7964 51.4368 28.6348 49.1323 26.7557 49.1323C25.555 49.1323 24.5675 50.4657 23.643 52.3721C23.0268 53.7772 22.5007 55.2484 22.0701 56.7701C20.8694 61.1761 19.3415 68.0696 19.3415 68.0696H13.4702L20.8874 27.8667H26.7557L24.1803 41.8368C25.0149 41.4994 25.8831 41.3304 26.7557 41.3353C32.3179 41.3353 34.9023 47.5602 36.9795 52.5632C39.0087 57.4547 40.1853 59.7552 42.0524 59.7552C43.9194 59.7552 45.0931 57.4547 47.1222 52.5632C49.1994 47.5602 51.7839 41.3353 57.346 41.3353C62.9082 41.3353 65.4926 47.5602 67.5698 52.5632C69.599 57.4547 70.7606 59.7552 72.6397 59.7552C74.5187 59.7552 75.6834 57.4547 77.7125 52.5632C79.7897 47.5602 82.3742 41.3353 87.9363 41.3353C93.4985 41.3353 96.0829 47.5602 98.1601 52.5632C100.189 57.4547 101.351 59.7552 103.233 59.7552C105.115 59.7552 106.274 57.4547 108.306 52.5632C110.383 47.5602 112.967 41.3353 118.53 41.3353ZM18.5941 85.0925C17.9177 85.0759 17.2493 85.2882 16.652 85.7094C16.2689 85.9907 15.9288 86.3646 15.6494 86.8119V79.787H13.4702V96.9651H15.6494V90.4497C15.6417 89.9367 15.7304 89.4292 15.9076 88.9731C16.077 88.5534 16.3346 88.2078 16.649 87.978C17.0112 87.7298 17.4151 87.6078 17.8227 87.6238C18.5071 87.6238 18.9923 87.8891 19.2785 88.4198C19.5927 89.084 19.7418 89.8622 19.7047 90.6447V96.985H21.875V89.8527C21.875 88.3615 21.5928 87.1953 21.0285 86.3542C20.4762 85.5144 19.6597 85.0925 18.5941 85.0925ZM41.7672 85.2915H44.0335L42.2325 96.9651H39.2308L37.6909 88.1731L36.1721 96.9651H33.1704L31.3693 85.2915H33.6116L34.7583 94.8795L36.5202 85.2915H38.8526L40.6326 94.8835L41.7672 85.2915ZM53.1406 96.0377C53.092 95.8025 53.0628 95.5609 53.0536 95.3173C53.0386 95.0507 53.0326 94.776 53.0326 94.5213V89.184C53.0534 88.3586 52.8499 87.5507 52.4593 86.9074C52.0611 86.2819 51.5424 85.8114 50.9584 85.5462C50.2903 85.2353 49.5863 85.0817 48.8782 85.0925C48.1339 85.0775 47.3939 85.2462 46.696 85.59C46.1054 85.8803 45.5862 86.38 45.1952 87.0348C44.82 87.7055 44.6264 88.5244 44.6458 89.3591H46.7891C46.7724 89.0724 46.813 88.785 46.9068 88.5258C47.0006 88.2665 47.1443 88.0447 47.3234 87.8825C47.7904 87.5314 48.3244 87.3682 48.8602 87.4129C49.3704 87.3689 49.8803 87.5063 50.3371 87.8109C50.4989 87.9264 50.6334 88.0991 50.7256 88.3099C50.8178 88.5207 50.8641 88.7613 50.8594 89.0049C50.8594 89.2755 50.6582 89.4706 50.259 89.594C49.5642 89.7694 48.8628 89.8956 48.1578 89.9721C47.5224 90.0388 46.8971 90.2223 46.2998 90.5173C45.7865 90.7571 45.3284 91.1683 44.97 91.7114C44.6271 92.272 44.4519 92.9804 44.4777 93.7014C44.4627 94.3711 44.61 95.0295 44.898 95.58C45.1957 96.1161 45.6015 96.53 46.0686 96.774C46.6204 97.0574 47.2091 97.1927 47.8006 97.1721C48.3192 97.1781 48.8357 97.0856 49.3345 96.8974C49.7659 96.734 50.1723 96.4713 50.5352 96.1213C50.6811 95.9761 50.8167 95.8136 50.9404 95.6357C50.9619 95.7949 50.992 95.9519 51.0305 96.1054C51.0792 96.287 51.1416 96.4616 51.2166 96.6268C51.2623 96.7349 51.3167 96.8363 51.3787 96.9293H53.5339C53.4648 96.8274 53.4034 96.7168 53.3508 96.5989C53.2624 96.4264 53.1917 96.239 53.1406 96.0417V96.0377ZM50.5052 93.6696C50.2672 94.0978 49.9424 94.4277 49.5686 94.6208C49.1668 94.8277 48.739 94.9317 48.3079 94.9273C47.8732 94.9669 47.439 94.8412 47.0562 94.5651C46.9213 94.4481 46.8121 94.2861 46.7393 94.0954C46.6666 93.9046 46.6331 93.6919 46.642 93.4785C46.6335 93.2541 46.6759 93.0315 46.7636 92.8393C46.8514 92.6471 46.9804 92.4941 47.1343 92.3999C47.6005 92.1356 48.0986 91.9833 48.6051 91.9502C49.1154 91.8825 49.6167 91.7949 50.1059 91.6795C50.3567 91.6251 50.6052 91.5534 50.8504 91.4646V92.0138C50.8735 92.602 50.7524 93.1843 50.5052 93.6735V93.6696ZM54.7375 79.783H56.8838V96.9611H54.7375V79.783ZM74.3596 87.2019C74.6189 87.95 74.7452 88.767 74.7289 89.59V96.977H72.5406V90.4059C72.546 89.9214 72.4881 89.4393 72.3695 88.981C72.2641 88.5739 72.0605 88.2242 71.7902 87.986C71.448 87.7204 71.0544 87.5944 70.6586 87.6238C70.2697 87.6136 69.8866 87.749 69.5532 88.0144C69.2198 88.2798 68.9495 88.6645 68.7735 89.1243C68.5835 89.6166 68.4876 90.1633 68.4943 90.7163V96.9492H66.3151V85.2915H68.4943V87.0626C68.8381 86.4442 69.2881 85.9433 69.8069 85.6013C70.3258 85.2594 70.8987 85.0863 71.478 85.0964C72.0994 85.0689 72.7153 85.2583 73.264 85.6457C73.7423 86.0028 74.1251 86.548 74.3596 87.2059V87.2019ZM99.7 85.8606C98.9387 85.3528 98.0983 85.0883 97.2461 85.0883C96.3939 85.0883 95.5535 85.3528 94.7922 85.8606C94.1012 86.3532 93.5259 87.0885 93.1293 87.986C92.7193 88.9418 92.5118 90.0269 92.5289 91.1263C92.5145 92.2265 92.7218 93.3119 93.1293 94.2706C93.5226 95.1766 94.0984 95.9194 94.7922 96.4158C95.5529 96.9261 96.3935 97.192 97.2461 97.192C98.0986 97.192 98.9392 96.9261 99.7 96.4158C100.393 95.9192 100.968 95.1763 101.36 94.2706C101.769 93.3127 101.976 92.2268 101.96 91.1263C101.979 90.0267 101.771 88.9411 101.36 87.986C100.964 87.0901 100.39 86.3561 99.7 85.8646V85.8606ZM99.4418 93.0765C99.2471 93.6086 98.942 94.0559 98.5623 94.3661C98.1652 94.6832 97.708 94.8434 97.2446 94.8278C96.7823 94.8409 96.3266 94.6809 95.9298 94.3661C95.5492 94.0562 95.2431 93.6088 95.0473 93.0765C94.8335 92.4666 94.7307 91.7986 94.7472 91.1263C94.7296 90.4564 94.8325 89.7907 95.0473 89.184C95.2445 88.6581 95.5506 88.2177 95.9298 87.9144C96.3291 87.6088 96.7837 87.4533 97.2446 87.4646C97.7067 87.4507 98.1627 87.6064 98.5623 87.9144C98.9408 88.2178 99.2459 88.6583 99.4418 89.184C99.6567 89.7907 99.7596 90.4564 99.742 91.1263C99.759 91.7999 99.6562 92.4694 99.4418 93.0805V93.0765ZM116.341 79.783V86.6805C115.987 86.1751 115.557 85.7727 115.079 85.4987C114.601 85.2247 114.085 85.085 113.565 85.0885C112.868 85.0848 112.183 85.3236 111.578 85.781C110.944 86.2597 110.424 86.9642 110.077 87.8148C109.678 88.8235 109.482 89.952 109.51 91.0905C109.48 92.2516 109.671 93.4038 110.065 94.4417C110.4 95.3015 110.914 96.0167 111.545 96.5034C112.157 96.967 112.851 97.2073 113.556 97.1999C114.243 97.2094 114.918 96.9581 115.501 96.4755C115.81 96.2181 116.089 95.9046 116.332 95.5442V96.9571H118.53V79.787L116.341 79.783ZM116.02 93.2079C115.815 93.6497 115.529 94.0153 115.189 94.2706C114.848 94.5302 114.462 94.6674 114.069 94.6686C113.768 94.6759 113.469 94.6025 113.19 94.4527C112.911 94.3029 112.658 94.0798 112.445 93.7969C111.998 93.2198 111.773 92.3203 111.773 91.1064C111.773 89.8925 111.998 88.985 112.445 88.4198C112.803 87.9711 113.259 87.6828 113.747 87.5956C114.236 87.5085 114.733 87.627 115.168 87.9343C115.508 88.1755 115.799 88.524 116.014 88.9492C116.237 89.4004 116.351 89.9305 116.341 90.4696V91.6636C116.348 92.2097 116.237 92.747 116.02 93.2119V93.2079ZM109.6 86.2785L108.594 88.5154C108.301 88.0725 107.895 87.789 107.453 87.7193C107.065 87.6728 106.675 87.7779 106.331 88.0218C106.048 88.2099 105.803 88.4824 105.613 88.8178C105.431 89.1603 105.301 89.5471 105.232 89.9561C105.155 90.3527 105.116 90.7605 105.115 91.1701V96.973H102.936V85.2915H105.115V86.8835C105.333 86.4381 105.617 86.0561 105.95 85.7605C106.283 85.465 106.657 85.2621 107.051 85.1641C108.45 84.8775 109.6 86.2825 109.6 86.2825V86.2785ZM29.8025 86.2785L28.7969 88.5154C28.5048 88.0707 28.098 87.7868 27.6562 87.7193C27.2676 87.6689 26.8766 87.7743 26.5336 88.0218C26.2512 88.2099 26.0056 88.4824 25.8162 88.8178C25.6327 89.1594 25.503 89.5466 25.435 89.9561C25.3579 90.3527 25.3186 90.7605 25.3179 91.1701V96.973H23.1387V85.2915H25.3179V86.8835C25.5357 86.4376 25.8197 86.0553 26.1525 85.7597C26.4854 85.4641 26.8602 85.2614 27.254 85.1641C28.6528 84.8775 29.8025 86.2825 29.8025 86.2825V86.2785ZM89.6563 85.2875H92.0937V87.5959H89.6563V96.9611H87.4771V87.5999H85.7931L86.1983 85.2915H87.4771V84.2487C87.4687 83.6391 87.5388 83.0321 87.6842 82.4537C87.8073 81.9721 87.9988 81.5262 88.2485 81.1402C88.4792 80.7862 88.7557 80.4897 89.065 80.2646C89.3739 80.0401 89.7054 79.8752 90.0495 79.7751C90.3945 79.6739 90.7468 79.6232 91.1001 79.6238C91.3543 79.623 91.6082 79.6483 91.8595 79.6994C92.4446 79.8351 92.9935 80.1682 93.4534 80.6666L92.5529 82.7084C92.2911 82.3632 91.9578 82.1293 91.5953 82.0364C91.2328 81.9436 90.8577 81.996 90.5178 82.187C90.3129 82.2986 90.1352 82.4832 90.0045 82.7203C89.8784 82.9595 89.7905 83.2304 89.7463 83.5164C89.6955 83.8356 89.6703 84.1612 89.6713 84.4875L89.6563 85.2875ZM80.255 94.2785C80.9806 94.315 81.702 94.1155 82.3562 93.6974C82.894 93.3262 83.3508 92.778 83.6829 92.1054C84.022 91.4056 84.2658 90.6323 84.4033 89.8208L85.1988 85.2915H83.2297L83.1096 86.7721C83.0736 86.7124 83.0376 86.6527 82.9985 86.5969C82.6642 86.1238 82.2538 85.7565 81.7979 85.5223C81.2567 85.2432 80.6794 85.108 80.0989 85.1243C79.3734 85.1046 78.6543 85.3075 77.9977 85.7173C77.4095 86.0778 76.9078 86.6466 76.5479 87.3611C76.192 88.0803 76.0079 88.925 76.0196 89.785C76.008 90.6247 76.1869 91.4497 76.5329 92.1532C76.6751 92.43 76.8425 92.6826 77.0312 92.9054C76.8424 93.1767 76.6837 93.4822 76.5599 93.8129C76.4088 94.2044 76.3316 94.6387 76.3348 95.0785C76.3243 95.4132 76.3676 95.747 76.4618 96.0579C76.556 96.3687 76.6989 96.6494 76.8811 96.8815C77.2646 97.3512 77.754 97.6407 78.2739 97.7054L81.4407 98.187C81.7414 98.2166 82.0375 98.3024 82.3201 98.4417C82.4438 98.5134 82.5467 98.6363 82.6132 98.792C82.6798 98.9477 82.7065 99.1278 82.6894 99.3054C82.6897 99.4571 82.6648 99.607 82.6166 99.7446C82.5684 99.8821 82.4979 100.004 82.4102 100.101C82.1727 100.357 81.8929 100.534 81.5937 100.619C81.1545 100.75 80.705 100.81 80.255 100.798C79.6601 100.826 79.0665 100.706 78.505 100.444C78.2624 100.294 78.032 100.111 77.8176 99.8984L76.8601 102.036L76.9771 102.143C77.7276 102.799 78.7992 103.128 80.1919 103.13C81.0149 103.159 81.8351 102.993 82.6143 102.641C83.2059 102.379 83.7274 101.895 84.1152 101.248C84.4608 100.629 84.6404 99.8757 84.6255 99.1064C84.651 98.4905 84.5471 97.8774 84.3253 97.3352C84.1161 96.8938 83.8118 96.5457 83.4518 96.3362C83.0408 96.0981 82.6043 95.9464 82.1581 95.8865L79.2074 95.3969C78.9039 95.3832 78.6095 95.2563 78.3579 95.0308C78.2874 94.9475 78.2313 94.845 78.1934 94.7302C78.1556 94.6155 78.137 94.4913 78.1388 94.3661C78.1385 94.18 78.1758 93.9972 78.2468 93.8367C78.8905 94.1447 79.5708 94.2957 80.255 94.2825V94.2785ZM78.4269 88.4596C78.6112 88.0996 78.8681 87.8154 79.1684 87.6397C79.8674 87.2657 80.6486 87.2657 81.3476 87.6397C81.642 87.8061 81.8934 88.0827 82.071 88.4357C82.2382 88.8214 82.3262 89.2585 82.3262 89.7034C82.3262 90.1483 82.2382 90.5854 82.071 90.9711C81.8942 91.325 81.6426 91.6019 81.3476 91.7671C80.9987 91.959 80.6236 92.0525 80.246 92.0417C79.8697 92.0518 79.4958 91.9597 79.1474 91.7711C78.8504 91.6068 78.5966 91.3299 78.4179 90.975C78.2461 90.5929 78.1554 90.1563 78.1554 89.7114C78.1554 89.2665 78.2461 88.8298 78.4179 88.4477L78.4269 88.4596ZM58.6007 79.783H60.7469V96.9611H58.6007V79.783ZM64.8503 81.6935C64.8569 81.8996 64.8248 82.1048 64.7566 82.2903C64.6885 82.4759 64.5866 82.636 64.46 82.7562C64.2003 83.0145 63.8843 83.1542 63.5595 83.1542C63.2271 83.157 62.9028 83.0174 62.635 82.7562C62.5077 82.6367 62.4051 82.4768 62.3364 82.2912C62.2677 82.1055 62.2352 81.9001 62.2418 81.6935C62.2361 81.4899 62.2691 81.2876 62.3378 81.1054C62.4065 80.9231 62.5087 80.7668 62.635 80.6507C62.905 80.3979 63.2291 80.2667 63.5595 80.2766C63.8822 80.2696 64.198 80.4008 64.46 80.6507C64.5858 80.7681 64.6874 80.9254 64.7556 81.1083C64.8237 81.2911 64.8563 81.4937 64.8503 81.6974V81.6935ZM62.4489 85.2756H64.6071V96.9492H62.4489V85.2756Z" fill="black"/>
</svg>
