<svg width="466" height="313" viewBox="0 0 466 313" fill="none" xmlns="http://www.w3.org/2000/svg">
<g clip-path="url(#clip0_204_1083)">
<path d="M466 146.952C466.001 159.405 461.457 171.399 453.279 180.537C445.1 189.675 433.888 195.283 421.885 196.241C421.48 196.272 421.07 196.304 420.659 196.323V149.405C420.66 148.936 420.559 148.473 420.364 148.05C420.169 147.626 419.884 147.254 419.532 146.959C419.491 146.915 419.446 146.877 419.397 146.845C419.353 146.807 419.306 146.773 419.256 146.743C418.826 146.457 418.333 146.286 417.822 146.247C417.312 146.209 416.8 146.303 416.333 146.521L415.825 145.368C416.381 145.106 416.985 144.97 417.596 144.969L382.696 113.87C382.965 113.553 383.247 113.242 383.529 112.932C390.108 105.758 398.617 100.789 407.954 98.6686C417.292 96.5479 427.03 97.3724 435.91 101.036C444.789 104.699 452.403 111.032 457.767 119.217C463.131 127.403 465.999 137.064 466 146.952Z" fill="#F2F2F2"/>
<path d="M12.118 180.66C11.9445 179.743 11.9674 178.797 12.1853 177.89C12.4032 176.983 12.8107 176.137 13.3791 175.41C13.9476 174.684 14.6631 174.095 15.4752 173.685C16.2874 173.276 17.1766 173.056 18.08 173.04L45.6288 139.118L52.5065 148.214L24.4304 179.784C24.3552 181.355 23.7253 182.844 22.66 183.967C21.5947 185.091 20.1681 185.771 18.6504 185.879C17.1328 185.987 15.6296 185.515 14.4256 184.553C13.2216 183.591 12.4006 182.206 12.118 180.66Z" fill="#FFB8B8"/>
<path d="M142.938 138.909C142.745 139.197 142.574 139.501 142.427 139.817L112.347 144.265L107.779 138.266L98.1263 144.214L107.2 158.847L143.886 147.661C144.854 148.567 146.066 149.147 147.361 149.324C148.656 149.5 149.972 149.265 151.134 148.649C152.296 148.034 153.25 147.066 153.868 145.876C154.485 144.686 154.738 143.33 154.593 141.988C154.447 140.645 153.91 139.381 153.053 138.362C152.196 137.343 151.059 136.618 149.793 136.284C148.528 135.95 147.194 136.022 145.97 136.491C144.745 136.96 143.687 137.803 142.938 138.909Z" fill="#FFB8B8"/>
<path d="M91.5551 252.246L96.8783 257.728L119.855 239.1L111.999 231.009L91.5551 252.246Z" fill="#FFB8B8"/>
<path d="M102.222 273.414L85.493 256.184L91.9289 249.498L102.195 260.071C103.043 260.945 103.718 261.984 104.178 263.128C104.639 264.271 104.878 265.498 104.88 266.737C104.883 267.976 104.649 269.203 104.193 270.349C103.737 271.494 103.068 272.536 102.222 273.414Z" fill="#2F2E41"/>
<path d="M63.26 304.831H70.7719L74.3452 274.861H63.2588L63.26 304.831Z" fill="#FFB8B8"/>
<path d="M85.2587 312.044L61.6505 312.046L61.65 302.611L76.1369 302.61C77.3347 302.61 78.5208 302.854 79.6275 303.328C80.7342 303.802 81.7398 304.497 82.5868 305.373C83.4338 306.249 84.1058 307.289 84.5642 308.434C85.0226 309.579 85.2586 310.805 85.2587 312.044Z" fill="#2F2E41"/>
<path d="M61.627 281.683L53.0708 216.413C51.7318 206.549 52.1473 196.515 54.297 186.806C56.0528 179.003 58.4248 173.598 61.3473 170.742C61.8085 170.294 62.3989 170.015 63.028 169.948L91.278 166.904C91.8221 166.847 92.3709 166.95 92.8602 167.203C93.3495 167.456 93.7592 167.848 94.0414 168.333L94.9701 169.933C95.0828 170.128 95.1737 170.335 95.241 170.55L101.214 189.703C101.303 189.992 101.447 190.26 101.637 190.492C101.827 190.723 102.06 190.913 102.322 191.05C111.726 196.017 142.273 212.781 140.525 220.014C138.882 226.81 123.504 237.829 118.83 241.044C118.354 241.373 117.793 241.547 117.221 241.542C116.648 241.538 116.09 241.355 115.619 241.019L107.86 235.528C107.481 235.26 107.17 234.902 106.953 234.484C106.735 234.066 106.617 233.6 106.609 233.125C106.601 232.65 106.703 232.181 106.906 231.755C107.11 231.329 107.409 230.96 107.778 230.679L113.129 226.601C113.456 226.351 113.712 226.014 113.868 225.625C114.024 225.236 114.074 224.811 114.014 224.395C113.954 223.979 113.785 223.588 113.526 223.264C113.266 222.939 112.926 222.694 112.543 222.555L83.8074 212.126C83.4847 212.009 83.1404 211.97 82.8009 212.012C82.4614 212.054 82.1357 212.176 81.8489 212.368C81.5621 212.561 81.3219 212.819 81.1466 213.123C80.9713 213.426 80.8657 213.768 80.8379 214.12L75.5397 281.102C75.4812 281.82 75.1732 282.492 74.6728 282.993C74.1723 283.495 73.5133 283.792 72.8174 283.829L64.6197 284.254C64.5698 284.256 64.5204 284.257 64.4709 284.257C63.7751 284.26 63.1023 284 62.5787 283.526C62.0551 283.052 61.7167 282.397 61.627 281.683Z" fill="#2F2E41"/>
<path d="M74.5831 112.865C82.8944 112.865 89.632 105.896 89.632 97.2987C89.632 88.7018 82.8944 81.7327 74.5831 81.7327C66.2719 81.7327 59.5343 88.7018 59.5343 97.2987C59.5343 105.896 66.2719 112.865 74.5831 112.865Z" fill="#FFB8B8"/>
<path d="M60.5076 168.076L49.4303 126.269L49.62 126.137C49.8579 125.971 73.7342 109.663 101.688 122.805L102.195 123.106L95.6314 166.498C95.4882 167.488 95.0155 168.396 94.2947 169.064C93.5738 169.733 92.6501 170.12 91.6829 170.159L64.6728 171.234C64.6184 171.236 64.5641 171.237 64.5101 171.237C63.5996 171.239 62.7138 170.931 61.9902 170.359C61.2665 169.787 60.7454 168.985 60.5076 168.076Z" fill="#CCCCCC"/>
<path d="M49.0087 153.486L39.783 142.512C39.3386 141.985 39.0884 141.312 39.0765 140.613C39.0646 139.913 39.2917 139.232 39.7178 138.689L49.3622 126.365L56.7659 128.454L60.691 142.664L53.5342 153.24C53.2845 153.611 52.9559 153.918 52.5737 154.137C52.1914 154.357 51.7656 154.482 51.3291 154.505C51.2775 154.507 51.2261 154.508 51.1748 154.508C50.7639 154.509 50.3577 154.418 49.9838 154.242C49.61 154.065 49.2774 153.808 49.0087 153.486Z" fill="#CCCCCC"/>
<path d="M100.026 151.2C99.5896 151.177 99.1638 151.052 98.7815 150.833C98.3992 150.613 98.0707 150.306 97.821 149.935L90.6642 139.36L94.1066 124.401L100.923 122.478L102.195 123.106L111.637 135.384C112.064 135.927 112.291 136.609 112.279 137.308C112.267 138.007 112.017 138.68 111.572 139.207L102.346 150.181C102.078 150.503 101.745 150.761 101.371 150.937C100.998 151.114 100.591 151.204 100.18 151.204C100.129 151.204 100.078 151.202 100.026 151.2Z" fill="#CCCCCC"/>
<path d="M420.659 146.3C420.665 146.457 420.612 146.611 420.512 146.731C420.406 146.858 420.256 146.937 420.094 146.95C419.932 146.963 419.772 146.909 419.648 146.8L417.596 144.969L382.696 113.87L284.809 26.6312C284.251 26.1367 283.539 25.8655 282.804 25.8667C282.069 25.8678 281.359 26.1413 280.802 26.6375L148.983 145.095L147.794 146.16C147.749 146.202 147.697 146.236 147.641 146.262C147.543 146.306 147.435 146.324 147.329 146.312C147.176 146.295 147.034 146.221 146.93 146.103C146.877 146.041 146.836 145.968 146.81 145.889C146.784 145.811 146.773 145.727 146.779 145.644C146.784 145.561 146.805 145.48 146.84 145.406C146.876 145.331 146.925 145.264 146.985 145.209L147.151 145.057L279.999 25.6805C280.78 24.987 281.774 24.6046 282.803 24.6023C283.832 24.6 284.828 24.9779 285.611 25.6678L383.529 112.932L420.445 145.837C420.509 145.895 420.562 145.966 420.599 146.045C420.635 146.125 420.656 146.211 420.659 146.3Z" fill="#3F3D56"/>
<path d="M346.233 165.015L344.622 160.426L339.071 144.582L327.11 110.466L313.741 72.3322L289.631 3.54921C289.157 2.20788 288.189 1.11528 286.939 0.510652C285.688 -0.0939705 284.257 -0.16133 282.958 0.323324L143.561 52.603C142.263 53.0921 141.207 54.0934 140.622 55.3871C140.037 56.6809 139.973 58.1616 140.442 59.5047L174.625 157.017L175.207 158.683L211.087 175.504L221.173 180.231L222.809 180.998L265.509 201.019L267.163 200.398L295.17 189.896L337.416 174.052L343.109 171.916C344.406 171.428 345.464 170.427 346.049 169.133C346.635 167.84 346.701 166.359 346.233 165.015Z" fill="#E6E6E6"/>
<path d="M287.78 83.7909C287.085 81.8169 285.661 80.2086 283.821 79.3187C281.981 78.4289 279.875 78.3301 277.965 79.044L222.809 99.7366L196.174 109.725C195.228 110.079 194.358 110.622 193.615 111.324C192.872 112.025 192.269 112.872 191.842 113.814C191.416 114.757 191.172 115.777 191.127 116.817C191.082 117.857 191.235 118.896 191.578 119.874C191.921 120.853 192.447 121.752 193.126 122.52C193.805 123.288 194.624 123.91 195.536 124.351C196.447 124.791 197.434 125.042 198.439 125.088C199.445 125.134 200.449 124.974 201.394 124.618L222.809 116.589L283.191 93.9439C285.1 93.2246 286.655 91.7519 287.515 89.8486C288.375 87.9454 288.471 85.7669 287.78 83.7909Z" fill="white"/>
<path d="M297.492 111.499C296.797 109.525 295.373 107.917 293.533 107.027C291.693 106.137 289.587 106.039 287.676 106.752L278.333 110.257L222.809 131.083L205.886 137.427C203.977 138.144 202.422 139.616 201.562 141.519C200.703 143.422 200.608 145.6 201.3 147.574C201.992 149.549 203.413 151.159 205.252 152.05C207.091 152.941 209.196 153.041 211.106 152.327L222.808 147.935L292.903 121.646C293.062 121.589 293.215 121.519 293.368 121.45C295.148 120.642 296.564 119.164 297.33 117.317C298.096 115.469 298.154 113.39 297.492 111.499Z" fill="white"/>
<path d="M307.308 139.499C306.614 137.526 305.191 135.917 303.352 135.027C301.513 134.137 299.408 134.039 297.498 134.752L271.293 144.582L251.006 152.194L222.809 162.765L215.701 165.433C214.059 166.052 212.67 167.232 211.764 168.779C210.858 170.326 210.49 172.146 210.72 173.938C210.79 174.472 210.913 174.996 211.087 175.504L221.173 180.232L222.809 179.617H222.821L273.989 160.426L302.718 149.652C304.628 148.935 306.184 147.462 307.044 145.558C307.905 143.654 308 141.475 307.308 139.499Z" fill="white"/>
<path d="M249.878 56.5514C249.183 54.5773 247.759 52.9691 245.919 52.0792C244.079 51.1894 241.973 51.0906 240.063 51.8044L208.385 63.6813C206.477 64.3987 204.922 65.8705 204.062 67.7732C203.202 69.676 203.108 71.854 203.8 73.8286C204.492 75.8033 205.913 77.413 207.752 78.3042C209.59 79.1953 211.696 79.295 213.606 78.5812L223.63 74.823L230.265 72.3323L245.289 66.698C247.197 65.9802 248.752 64.5087 249.612 62.6064C250.473 60.7041 250.568 58.5265 249.878 56.5514Z" fill="white"/>
<path d="M376.293 72.3323H228.017C227.142 72.3332 226.282 72.5618 225.515 72.9971C224.748 73.4324 224.1 74.0603 223.63 74.823C223.092 75.6865 222.807 76.6922 222.808 77.7193V180.998L265.509 201.019L271.525 203.839L281.028 208.295C281.585 208.555 282.189 208.689 282.799 208.689C283.41 208.689 284.013 208.555 284.57 208.295L294.073 203.839L323.814 189.897L351.533 176.898L381.501 162.854V77.7193C381.5 76.2909 380.951 74.9212 379.974 73.9111C378.998 72.901 377.674 72.3332 376.293 72.3323Z" fill="#52B6E6"/>
<path d="M345.657 144.582H258.652C256.674 144.583 254.773 145.376 253.347 146.795C251.922 148.214 251.082 150.149 251.005 152.194C250.995 152.297 250.991 152.4 250.993 152.504C250.996 154.604 251.804 156.618 253.24 158.103C254.675 159.588 256.622 160.423 258.652 160.426H345.657C347.688 160.426 349.636 159.592 351.073 158.106C352.509 156.62 353.316 154.605 353.316 152.504C353.316 150.403 352.509 148.388 351.073 146.902C349.636 145.417 347.688 144.582 345.657 144.582Z" fill="white"/>
<path d="M350.614 175.941C349.233 174.719 347.475 174.049 345.657 174.052H258.652C256.621 174.052 254.673 174.887 253.237 176.373C251.8 177.858 250.993 179.873 250.993 181.974C250.993 184.075 251.8 186.09 253.237 187.576C254.673 189.062 256.621 189.897 258.652 189.897H323.814L351.533 176.898C351.254 176.553 350.946 176.232 350.614 175.941Z" fill="white"/>
<path d="M271.525 203.84L281.028 208.295C281.585 208.555 282.189 208.69 282.799 208.69C283.41 208.69 284.014 208.555 284.57 208.295L294.073 203.84H271.525Z" fill="white"/>
<path d="M326.198 110.808C325.658 109.283 324.679 107.966 323.393 107.036C322.106 106.105 320.574 105.606 319.004 105.605H285.305C283.834 105.607 282.394 106.046 281.158 106.871C279.921 107.696 278.941 108.871 278.333 110.257C277.879 111.283 277.645 112.399 277.646 113.527C277.649 115.628 278.457 117.641 279.893 119.126C281.328 120.611 283.275 121.447 285.305 121.449H319.004C320.236 121.45 321.45 121.142 322.543 120.553C323.636 119.965 324.575 119.112 325.281 118.067C325.987 117.023 326.439 115.818 326.599 114.554C326.758 113.29 326.621 112.005 326.198 110.808Z" fill="white"/>
<path d="M320.842 189.896L291.101 203.839L284.062 207.141C283.665 207.326 283.234 207.422 282.799 207.422C282.364 207.422 281.934 207.326 281.537 207.141L274.497 203.839H271.525L281.028 208.295C281.585 208.555 282.189 208.689 282.799 208.689C283.41 208.689 284.014 208.555 284.57 208.295L294.073 203.839L323.814 189.896H320.842ZM320.842 189.896L291.101 203.839L284.062 207.141C283.665 207.326 283.234 207.422 282.799 207.422C282.364 207.422 281.934 207.326 281.537 207.141L274.497 203.839H271.525L281.028 208.295C281.585 208.555 282.189 208.689 282.799 208.689C283.41 208.689 284.014 208.555 284.57 208.295L294.073 203.839L323.814 189.896H320.842ZM320.842 189.896L291.101 203.839L284.062 207.141C283.665 207.326 283.234 207.422 282.799 207.422C282.364 207.422 281.934 207.326 281.537 207.141L274.497 203.839H271.525L281.028 208.295C281.585 208.555 282.189 208.689 282.799 208.689C283.41 208.689 284.014 208.555 284.57 208.295L294.073 203.839L323.814 189.896H320.842ZM420.659 146.299C420.433 146.067 420.185 145.859 419.918 145.678C419.316 145.275 418.625 145.035 417.91 144.98C417.195 144.926 416.477 145.059 415.825 145.368L350.614 175.941L320.842 189.896L291.101 203.839L284.062 207.141C283.665 207.326 283.234 207.422 282.799 207.422C282.364 207.422 281.934 207.326 281.537 207.141L274.497 203.839L267.163 200.398L222.821 179.617L222.809 179.61L210.72 173.938L174.625 157.017L149.774 145.368C149.521 145.247 149.256 145.155 148.983 145.095C148.383 144.94 147.757 144.927 147.151 145.057C146.182 145.262 145.311 145.807 144.685 146.599C144.059 147.391 143.716 148.382 143.714 149.405V308.564C143.715 309.74 144.167 310.867 144.971 311.699C145.775 312.531 146.866 312.999 148.003 313H417.596C418.733 312.999 419.823 312.531 420.627 311.699C421.431 310.867 421.884 309.74 421.885 308.564V149.405C421.887 148.243 421.447 147.128 420.659 146.299ZM420.659 308.563C420.659 309.404 420.336 310.21 419.762 310.804C419.187 311.398 418.408 311.732 417.596 311.732H148.003C147.19 311.732 146.411 311.398 145.837 310.804C145.262 310.21 144.939 309.404 144.939 308.563V149.405C144.939 148.875 145.068 148.354 145.313 147.889C145.558 147.424 145.912 147.03 146.342 146.743C146.645 146.543 146.979 146.397 147.329 146.312C147.432 146.289 147.536 146.272 147.641 146.261C147.761 146.244 147.882 146.235 148.003 146.236C148.438 146.237 148.869 146.334 149.265 146.521L175.207 158.683L211.087 175.504L221.173 180.231L222.809 180.998L265.509 201.019L271.525 203.839L281.028 208.295C281.585 208.555 282.189 208.689 282.799 208.689C283.41 208.689 284.014 208.555 284.57 208.295L294.073 203.839L323.814 189.896L351.533 176.898L416.334 146.521C416.8 146.303 417.312 146.209 417.822 146.247C418.333 146.286 418.826 146.457 419.256 146.743C419.306 146.773 419.353 146.807 419.397 146.845C419.446 146.877 419.491 146.915 419.532 146.959C419.884 147.254 420.169 147.626 420.364 148.05C420.559 148.473 420.66 148.936 420.659 149.405L420.659 308.563ZM320.842 189.896L291.101 203.839L284.062 207.141C283.665 207.326 283.234 207.422 282.799 207.422C282.364 207.422 281.934 207.326 281.537 207.141L274.497 203.839H271.525L281.028 208.295C281.585 208.555 282.189 208.689 282.799 208.689C283.41 208.689 284.014 208.555 284.57 208.295L294.073 203.839L323.814 189.896H320.842ZM320.842 189.896L291.101 203.839L284.062 207.141C283.665 207.326 283.234 207.422 282.799 207.422C282.364 207.422 281.934 207.326 281.537 207.141L274.497 203.839H271.525L281.028 208.295C281.585 208.555 282.189 208.689 282.799 208.689C283.41 208.689 284.014 208.555 284.57 208.295L294.073 203.839L323.814 189.896H320.842ZM221.173 180.231L222.809 180.998V179.617L221.173 180.231ZM320.842 189.896L291.101 203.839L284.062 207.141C283.665 207.326 283.234 207.422 282.799 207.422C282.364 207.422 281.934 207.326 281.537 207.141L274.497 203.839H271.525L281.028 208.295C281.585 208.555 282.189 208.689 282.799 208.689C283.41 208.689 284.014 208.555 284.57 208.295L294.073 203.839L323.814 189.896H320.842Z" fill="#3F3D56"/>
<path d="M107.547 313H38.3103C38.1478 313 37.992 312.933 37.8771 312.814C37.7622 312.695 37.6976 312.534 37.6976 312.366C37.6976 312.198 37.7622 312.037 37.8771 311.918C37.992 311.799 38.1478 311.732 38.3103 311.732H107.547C107.709 311.732 107.865 311.799 107.98 311.918C108.095 312.037 108.159 312.198 108.159 312.366C108.159 312.534 108.095 312.695 107.98 312.814C107.865 312.933 107.709 313 107.547 313Z" fill="#3F3D56"/>
<path d="M68.8613 108.682C67.7309 108.089 66.791 107.17 66.1554 106.035C65.5197 104.901 65.2156 103.6 65.2797 102.291C65.3439 100.981 65.7736 99.7191 66.5169 98.657C67.2602 97.5949 68.2851 96.7784 69.4677 96.3064C74.0088 94.4937 79.0997 98.193 83.8598 97.1413C88.6043 96.093 91.3488 90.226 90.2164 85.3464C89.0839 80.4668 84.9621 76.7915 80.4171 75.0362C77.4488 73.8927 74.2698 73.4543 71.1155 73.7533C67.9612 74.0524 64.9123 75.0813 62.1943 76.764C59.5045 78.4959 57.2642 80.8812 55.6684 83.7124C54.0726 86.5437 53.1695 89.7353 53.0376 93.0098C52.9758 96.2872 53.7499 99.5236 55.282 102.393C56.8141 105.263 59.0501 107.664 61.7648 109.355C62.9747 110.077 64.3829 110.656 65.7436 110.331C66.8606 109.956 67.913 109.399 68.8613 108.682Z" fill="#2F2E41"/>
<path d="M63.9845 76.3846C59.9801 70.8908 54.5746 66.3776 48.2846 64.14C41.9946 61.9024 34.8067 62.082 28.8992 65.2442C22.9918 68.4063 18.5862 74.6865 18.1263 81.5503C17.361 92.9738 26.7977 102.684 27.7662 114.091C28.0732 117.707 27.5058 121.345 26.1152 124.677C24.7246 128.009 22.5545 130.932 19.8003 133.181C17.0461 135.43 13.7943 136.934 10.3378 137.56C6.88131 138.185 3.32872 137.912 0 136.763C2.37091 138.782 5.11979 140.272 8.07397 141.139C11.0281 142.006 14.1238 142.232 17.1664 141.802C20.204 141.331 23.1022 140.166 25.6506 138.392C28.199 136.618 30.3339 134.28 31.9004 131.547C34.0242 127.73 34.8963 123.297 35.2351 118.907C35.7671 111.965 35.0466 104.982 33.1104 98.3135C32.0519 94.6749 30.6164 90.9306 31.2876 87.1948C31.6702 85.2517 32.5964 83.4677 33.951 82.0645C35.3056 80.6613 37.029 79.7007 38.907 79.3021C41.9419 78.7139 45.0449 79.672 47.9429 80.7746C50.8408 81.8772 53.7626 83.1533 56.8495 83.2263C59.9365 83.2993 63.2988 81.8377 64.4918 78.8918L63.9845 76.3846Z" fill="#2F2E41"/>
</g>
<defs>
<clipPath id="clip0_204_1083">
<rect width="466" height="313" fill="white"/>
</clipPath>
</defs>
</svg>
